<svg version="1.1" id="Layer_1" xmlns="http://www.w3.org/2000/svg" xmlns:xlink="http://www.w3.org/1999/xlink" x="0px" y="0px"
	 width="100%" viewBox="0 0 560 560" enable-background="new 0 0 560 560" xml:space="preserve">
<path fill="#000000" opacity="1.000000" stroke="none" 
	d="
M522.585571,330.494812 
	C516.081055,358.339355 506.094208,384.249359 490.896423,408.155579 
	C474.837311,433.416687 455.759460,455.860809 431.874481,474.012177 
	C406.228333,493.501862 377.699585,507.126099 346.555359,515.304199 
	C328.775360,519.973022 310.708618,522.896118 292.325714,523.074402 
	C258.717651,523.400330 226.596634,516.122864 195.654968,503.259430 
	C159.915543,488.401398 129.190033,466.671844 105.240082,436.076691 
	C79.541672,403.247955 61.456085,366.811981 52.482025,325.754944 
	C41.250931,274.371765 48.120014,225.211411 70.232513,178.321945 
	C89.421951,137.630844 117.819618,104.448936 156.468460,80.242783 
	C187.319672,60.920357 220.235046,48.328728 256.359161,43.519463 
	C295.462189,38.313606 333.481537,42.479652 370.261658,56.159275 
	C417.673492,73.793144 456.688690,102.531189 485.838165,144.560577 
	C505.484772,172.888229 518.172241,203.810394 524.588806,237.386337 
	C529.468079,262.918549 529.631470,288.653046 525.612305,314.403473 
	C524.789978,319.672272 523.949158,324.913544 522.585571,330.494812 
M72.954185,332.619293 
	C79.278839,355.317230 87.452080,377.139130 100.118385,397.277069 
	C120.878838,430.283752 147.693680,456.731689 181.997833,475.344299 
	C211.492615,491.347443 242.983231,501.260956 276.499847,503.578278 
	C321.734924,506.705811 363.214203,493.896576 401.713074,471.139801 
	C428.606415,455.243073 449.860809,433.190308 468.040253,407.736725 
	C491.628296,374.710388 504.405640,337.904205 508.549255,297.996002 
	C511.415192,270.393524 507.976776,243.278885 499.701141,216.663467 
	C485.923981,172.354462 461.296906,135.757004 424.309265,107.573669 
	C397.681793,87.284401 368.060150,73.267555 335.459961,65.897377 
	C313.070160,60.835526 290.340210,60.034565 267.426697,62.054920 
	C247.539566,63.808426 228.151337,67.681137 209.674591,75.076691 
	C166.842636,92.220726 130.969986,118.154488 104.475243,156.828873 
	C85.001099,185.255295 73.162926,216.347260 68.662170,250.022064 
	C65.013336,277.322693 65.602524,304.853180 72.954185,332.619293 
z"/>
<path fill="#000000" opacity="1.000000" stroke="none" 
	d="
M299.140747,298.000305 
	C298.873810,313.652496 298.593201,328.804413 298.345276,343.956909 
	C298.118530,357.814606 299.610046,371.476166 302.066772,385.135040 
	C304.752167,400.064789 304.969269,415.284668 305.289185,430.424133 
	C305.434326,437.292877 305.941101,444.017303 307.580261,450.680878 
	C309.939667,460.272247 306.615173,468.155884 299.592224,474.484406 
	C294.389099,479.173035 288.175415,479.568451 281.835510,476.779083 
	C268.605347,470.958313 264.087860,455.249695 272.347443,443.501190 
	C275.221710,439.412872 275.615356,434.822845 275.691071,430.176605 
	C276.073792,406.690430 275.569336,383.184479 276.907166,359.720520 
	C278.625366,329.584351 277.749481,299.428497 278.002258,269.280579 
	C278.064819,261.821014 276.970306,254.748428 274.048248,247.874176 
	C272.101746,243.294968 269.491364,239.519073 265.152130,236.831619 
	C248.570953,226.562271 240.743942,210.656845 240.120361,192.065384 
	C239.098618,161.603806 239.672028,131.087112 239.684464,100.593697 
	C239.687302,93.646019 243.537552,89.495842 249.262924,89.631714 
	C255.141510,89.771233 258.226379,93.744064 258.229584,101.021637 
	C258.242249,130.015701 258.281250,159.009781 258.312866,188.003845 
	C258.319305,193.914551 259.852509,199.159790 264.645477,203.095413 
	C267.123596,205.130219 269.688202,206.366913 272.884247,204.949341 
	C276.306732,203.431305 278.748352,201.156723 278.829346,197.095490 
	C278.892395,193.931213 279.036591,190.767258 279.034760,187.603195 
	C279.018158,158.775635 278.995850,129.948029 278.921478,101.120575 
	C278.911652,97.324120 279.328583,93.739502 282.411011,91.116997 
	C285.140717,88.794601 288.018890,86.822998 291.905457,88.607750 
	C295.685822,90.343712 298.184204,92.999306 298.267822,97.348335 
	C298.357513,102.012573 298.327484,106.679337 298.328461,111.345001 
	C298.334167,138.839691 298.346161,166.334412 298.317108,193.829071 
	C298.314056,196.725388 298.526276,199.449936 300.589050,201.761063 
	C306.158203,208.000717 314.296509,206.582108 317.961670,198.634491 
	C319.454437,195.397537 319.827515,191.948486 319.626373,188.389404 
	C317.941406,158.576538 320.026215,128.766418 319.757050,98.952950 
	C319.713135,94.089508 323.353363,90.281837 327.930420,89.765511 
	C332.515411,89.248306 337.795746,93.304665 338.811249,98.291107 
	C339.139740,99.904060 339.120300,101.606026 339.112457,103.266579 
	C339.007568,125.422310 339.274963,147.577484 338.517426,169.733292 
	C338.199707,179.025772 339.351044,188.316132 338.450287,197.671860 
	C336.744659,215.387283 329.159454,229.189819 312.905884,237.216171 
	C302.573334,242.318588 299.774689,251.329773 299.393341,261.513306 
	C298.944672,273.495300 299.194366,285.503448 299.140747,298.000305 
M294.363708,454.954437 
	C295.106445,452.727753 294.072205,451.082031 292.496918,449.734955 
	C290.085419,447.672882 287.458038,446.464722 284.467346,448.650299 
	C282.569336,450.037384 280.485077,451.624664 281.740662,454.303101 
	C283.171753,457.355957 285.739746,459.069641 289.305206,458.748779 
	C291.429626,458.557617 292.988129,457.446594 294.363708,454.954437 
z"/>
<path fill="#000000" opacity="1.000000" stroke="none" 
	d="
M397.323151,330.000061 
	C397.273651,356.819305 397.272278,383.138824 397.118042,409.457428 
	C397.096985,413.047272 397.988159,415.570374 400.933411,417.979401 
	C407.497833,423.348694 408.197388,432.157715 403.109039,438.489014 
	C397.813416,445.078186 389.608032,446.293457 383.146179,441.445679 
	C376.352112,436.348572 375.517151,424.315186 382.113647,418.982452 
	C385.885742,415.933014 386.827423,412.956177 386.147461,408.296478 
	C385.384338,403.066772 385.761169,397.661194 385.755768,392.332031 
	C385.721252,358.183655 385.694763,324.035278 385.741211,289.886993 
	C385.745728,286.564331 385.378662,284.120605 381.957550,282.124329 
	C377.172058,279.331940 375.384186,271.997437 377.183380,266.449432 
	C379.213440,260.189636 385.608978,255.502182 391.911011,255.655106 
	C397.859680,255.799454 403.744446,260.634552 405.685730,266.972809 
	C407.344208,272.387848 405.396973,278.904480 400.496368,281.949951 
	C397.735016,283.666016 397.213684,285.665985 397.234589,288.521912 
	C397.334473,302.180786 397.305969,315.840576 397.323151,330.000061 
M395.237732,268.498871 
	C393.865448,266.787415 392.197357,265.849670 390.006348,266.794678 
	C387.470947,267.888245 386.656738,269.946838 387.278503,272.524323 
	C387.798920,274.681702 389.407501,275.390198 391.480011,275.071503 
	C394.893036,274.546600 396.548859,272.750305 395.237732,268.498871 
M392.988251,425.754974 
	C390.042908,425.335602 388.124664,426.754120 387.600922,429.478516 
	C387.230316,431.406555 388.556366,432.953369 390.440460,433.551910 
	C392.558411,434.224670 394.409332,433.383606 395.588287,431.621277 
	C397.328857,429.019348 395.677551,427.392761 392.988251,425.754974 
z"/>
<path fill="#000000" opacity="1.000000" stroke="none" 
	d="
M174.726425,259.748962 
	C182.045731,253.841156 188.627472,254.167038 194.343018,260.456299 
	C199.913361,266.585785 200.082733,276.199463 193.941269,281.502747 
	C190.679245,284.319580 190.124054,287.260193 190.126282,291.037872 
	C190.145309,323.189453 190.106308,355.341095 190.018188,387.492584 
	C189.996750,395.313049 189.822800,403.136414 189.524307,410.950989 
	C189.420395,413.671661 190.073685,415.464966 192.387802,417.239746 
	C199.442413,422.650116 200.606445,430.559540 195.874451,438.028564 
	C192.161423,443.889221 186.373642,446.327332 180.573380,444.474152 
	C173.849075,442.325745 169.287750,436.005127 169.974014,429.279327 
	C170.451859,424.596161 171.430847,419.974609 176.030777,417.295319 
	C178.159470,416.055389 178.693359,414.178650 178.690872,411.813721 
	C178.647476,370.333038 178.648422,328.852325 178.690292,287.371643 
	C178.692505,285.182190 177.970108,283.785034 176.228241,282.345795 
	C168.720505,276.142303 168.137283,267.628937 174.726425,259.748962 
M179.719727,428.937897 
	C179.310257,432.158722 181.117432,433.390320 183.973969,433.607635 
	C186.147919,433.773010 187.937668,433.095032 188.533600,430.797089 
	C189.016403,428.935364 188.722366,427.060486 186.949570,426.009430 
	C184.463150,424.535187 182.241074,425.131927 180.507462,427.451233 
	C180.312546,427.712006 180.168411,428.010742 179.719727,428.937897 
M180.464462,271.972809 
	C181.538803,274.702698 183.555222,275.391083 186.065369,274.211456 
	C187.844070,273.375580 188.855698,271.761902 188.370758,269.704071 
	C187.929855,267.833008 186.503128,267.052124 184.633270,267.065735 
	C181.883942,267.085754 180.128677,268.139862 180.464462,271.972809 
z"/>
<path fill="#000000" opacity="1.000000" stroke="none" 
	d="
M357.677429,327.017914 
	C357.539307,320.894836 358.162384,315.253387 356.006287,309.741241 
	C355.212585,307.712097 355.506378,305.084839 355.860535,302.817261 
	C356.497559,298.738647 359.342407,296.772919 363.312500,296.954376 
	C367.215729,297.132751 369.849884,299.084045 370.296997,303.345428 
	C370.791168,308.054810 369.354950,312.610138 369.337891,317.266052 
	C369.256714,339.417694 369.546631,361.574738 368.282318,383.707550 
	C368.119598,386.556488 368.516663,389.135773 369.929047,391.830139 
	C371.819763,395.436859 371.904114,399.230408 369.615570,403.199432 
	C366.904266,407.901642 368.302399,413.288391 368.767853,418.352966 
	C369.400391,425.235718 368.494659,431.954834 367.367065,438.674042 
	C367.036224,440.645355 366.369202,442.712646 363.836243,442.899231 
	C361.178558,443.095001 360.123016,441.231110 359.203461,439.123138 
	C357.898468,436.131805 357.709106,432.999908 357.703918,429.820007 
	C357.694153,423.820648 357.683563,417.821289 357.676361,411.821930 
	C357.672180,408.337494 357.527222,405.109222 355.443268,401.844879 
	C353.546112,398.873138 353.837769,394.713104 355.973450,391.865356 
	C358.026154,389.128113 357.971100,386.522797 357.944275,383.507050 
	C357.778107,364.843475 357.750824,346.178680 357.677429,327.017914 
z"/>
<path fill="#000000" opacity="1.000000" stroke="none" 
	d="
M207.652725,305.208984 
	C207.758942,303.246155 207.593277,301.669434 208.027267,300.279999 
	C208.904114,297.472839 210.934723,295.696289 213.983704,295.974915 
	C217.125443,296.261993 219.294205,297.900970 219.306824,301.418365 
	C219.334290,309.082458 219.356140,316.746643 219.356003,324.410767 
	C219.355331,359.533478 219.319962,394.656219 219.386429,429.778778 
	C219.392227,432.843506 218.574127,435.692535 218.017853,438.619385 
	C217.679443,440.400055 216.649643,441.606873 214.696243,441.830414 
	C212.591370,442.071320 211.215881,441.190765 210.301224,439.313934 
	C208.432831,435.480072 207.835587,431.448029 207.837418,427.202545 
	C207.848633,401.211426 208.791214,375.161835 207.313675,349.252014 
	C206.478882,334.613464 208.667892,320.194885 207.652725,305.208984 
z"/>
<path fill="#000000" opacity="1.000000" stroke="none" 
	d="
M117.330826,370.822327 
	C108.262863,362.131012 108.959030,351.934601 119.093269,345.092651 
	C121.745003,343.302368 121.684250,341.172760 121.685844,338.668915 
	C121.701759,313.689514 121.714569,288.710052 121.779823,263.730743 
	C121.796371,257.396057 123.078011,256.356628 129.051346,256.623749 
	C132.057816,256.758209 133.233429,258.136169 133.239487,260.949249 
	C133.250244,265.946625 133.367691,270.944855 133.309219,275.941162 
	C133.052094,297.917877 133.926117,319.911011 132.421768,341.867554 
	C132.257233,344.269104 133.506714,345.437469 135.131180,346.761169 
	C141.571579,352.009308 142.549301,361.401672 137.480530,368.237091 
	C132.608566,374.807129 125.313240,375.844452 117.330826,370.822327 
M123.632980,362.814850 
	C126.361061,364.247803 128.770584,364.462799 129.721542,360.803558 
	C130.200363,358.961090 129.818115,357.142944 128.039429,356.037231 
	C126.535606,355.102417 124.735023,354.932434 123.405930,356.053894 
	C121.256378,357.867645 121.835938,360.120026 123.632980,362.814850 
z"/>
<path fill="#000000" opacity="1.000000" stroke="none" 
	d="
M453.368896,306.997131 
	C453.574768,317.821838 453.861053,328.146545 453.936554,338.472748 
	C453.959808,341.655823 455.068176,343.475922 457.956421,345.114349 
	C465.268341,349.262238 467.937286,358.383484 464.399200,365.422668 
	C460.807129,372.569366 453.016907,375.906250 445.981049,373.311920 
	C436.557800,369.837311 432.999237,354.764343 440.361298,347.731079 
	C443.530945,344.702972 444.063721,341.610443 443.482758,337.920013 
	C442.804199,333.609467 442.792450,329.289124 442.727661,324.960297 
	C442.418488,304.305878 442.165283,283.650482 441.786743,262.997375 
	C441.713684,259.012085 442.785522,256.794464 447.310638,256.599457 
	C451.837067,256.404388 453.464111,257.819611 453.391632,262.501007 
	C453.164612,277.163177 453.345367,291.831635 453.368896,306.997131 
M454.953308,357.371674 
	C453.375702,354.866821 451.340698,353.377869 448.417053,355.115143 
	C446.516174,356.244629 445.896240,358.127716 446.752380,360.249908 
	C447.539551,362.201050 448.901093,363.808258 451.158295,363.526489 
	C454.244751,363.141205 455.688385,361.178833 454.953308,357.371674 
z"/>
<path fill="#000000" opacity="1.000000" stroke="none" 
	d="
M152.050217,417.370178 
	C144.677582,416.706238 140.060226,412.797546 138.186890,405.996826 
	C136.582001,400.170685 138.696548,393.724243 143.992157,390.263245 
	C147.250198,388.133942 147.981003,385.586121 147.960938,381.931030 
	C147.838470,359.627441 147.948853,337.322571 147.982712,315.018127 
	C147.983215,314.685303 147.982285,314.351257 148.008453,314.019867 
	C148.483246,308.008057 148.535019,301.697784 157.357513,301.418091 
	C158.905533,305.351318 159.255600,309.761383 159.251358,314.213318 
	C159.229324,337.351074 159.223694,360.489075 159.081421,383.626221 
	C159.061707,386.832672 159.827377,389.199341 162.220291,391.545654 
	C166.871933,396.106689 168.401581,401.919495 165.920807,408.037384 
	C163.568100,413.839417 159.172256,417.442291 152.050217,417.370178 
M156.697525,402.522491 
	C156.389862,399.555695 154.707840,398.001740 151.773346,398.340515 
	C149.584320,398.593231 148.274048,400.146851 148.226440,402.392731 
	C148.184097,404.389648 149.251724,405.968567 151.147583,406.493927 
	C153.924210,407.263336 155.996506,406.348907 156.697525,402.522491 
z"/>
<path fill="#000000" opacity="1.000000" stroke="none" 
	d="
M415.665405,342.001221 
	C415.648651,333.172058 415.573792,324.842407 415.659698,316.514404 
	C415.683807,314.176544 414.901093,310.804108 418.511719,310.613800 
	C421.903961,310.435028 425.247253,311.641998 426.286316,315.535492 
	C426.793427,317.435577 426.883911,319.486725 426.900360,321.471680 
	C427.068756,341.792938 427.247681,362.114655 427.246124,382.436218 
	C427.245880,385.638214 427.978333,387.520599 431.114471,388.999664 
	C437.999573,392.246704 440.787750,399.168671 438.586304,406.073730 
	C436.114441,413.826691 428.833527,418.342651 420.679810,417.180023 
	C414.851074,416.348907 410.151978,410.095490 409.668030,402.863464 
	C409.373962,398.469147 410.190552,394.419006 413.442932,391.413696 
	C416.361908,388.716400 416.979034,385.584137 416.616577,381.943176 
	C415.310242,368.820282 416.199097,355.643585 415.665405,342.001221 
M426.484528,405.996704 
	C428.919983,404.266479 429.420135,402.061310 427.705750,399.639862 
	C426.480164,397.908875 424.530853,398.018127 422.770355,398.649109 
	C420.817688,399.348969 419.934753,400.952362 420.451202,402.968658 
	C421.149811,405.696075 422.711365,407.346313 426.484528,405.996704 
z"/>
<path fill="#000000" opacity="1.000000" stroke="none" 
	d="
M471.680481,303.905090 
	C471.687714,300.260895 471.672699,297.101715 471.706024,293.942993 
	C471.754700,289.332123 471.815338,285.284149 467.408661,281.625122 
	C462.212067,277.310211 461.829254,268.808838 464.989990,263.236420 
	C467.741394,258.385590 474.205444,255.054947 479.225281,255.901505 
	C485.795929,257.009613 491.944763,262.842682 492.967133,269.453766 
	C493.824829,274.999908 491.831451,279.901306 487.176544,282.876831 
	C483.968231,284.927704 483.123413,287.227570 483.281616,290.668121 
	C483.479950,294.981720 483.404144,299.313507 483.300018,303.633911 
	C483.187500,308.302765 483.325745,312.580994 486.677643,316.631653 
	C489.974243,320.615540 488.606262,325.867584 484.483673,329.498718 
	C480.564087,332.951050 475.693390,333.151337 471.734802,330.023041 
	C467.780823,326.898376 465.936523,321.030365 468.745056,317.120941 
	C471.658539,313.065552 471.832916,308.886932 471.680481,303.905090 
M474.279572,267.967529 
	C472.481262,270.791779 472.581543,273.355042 475.696228,275.075104 
	C477.808502,276.241608 479.872375,275.681671 481.518066,273.881653 
	C482.967987,272.295746 482.876862,270.587830 481.762695,268.888763 
	C479.937683,266.105713 477.517395,266.128082 474.279572,267.967529 
z"/>
<path fill="#000000" opacity="1.000000" stroke="none" 
	d="
M89.671608,325.776489 
	C88.014297,321.378265 88.212387,317.569214 91.033058,314.137482 
	C92.384239,312.493561 92.750275,310.602234 92.730415,308.538971 
	C92.693535,304.708130 92.711685,300.876373 92.745926,297.045319 
	C92.800194,290.973938 93.024361,285.503418 87.934387,280.196411 
	C81.951355,273.958313 83.654655,264.089783 89.712578,259.189087 
	C96.238503,253.909729 104.760361,254.875961 110.079834,261.498352 
	C115.207733,267.882202 114.371552,278.658813 107.850731,282.948242 
	C104.645088,285.056946 103.961670,287.368408 104.008392,290.773407 
	C104.088264,296.594360 103.941727,302.429169 103.591690,308.240143 
	C103.447273,310.637665 104.215034,312.284729 105.666824,314.071564 
	C110.427567,319.930908 110.015724,325.770416 104.781364,329.833557 
	C100.067154,333.492920 94.363861,332.085388 89.671608,325.776489 
M102.000977,273.513977 
	C103.255409,270.947052 102.404884,268.857697 100.114944,267.623108 
	C98.310158,266.650116 96.534973,267.477814 95.346397,269.138947 
	C94.139702,270.825348 94.129761,272.613739 95.562004,274.146698 
	C97.527130,276.250031 99.606766,276.088348 102.000977,273.513977 
z"/>
<path fill="#000000" opacity="1.000000" stroke="none" 
	d="
M156.445862,142.427521 
	C160.220413,139.169968 163.972763,138.917297 167.751434,141.416992 
	C170.017776,142.916245 172.435165,142.887024 174.938110,142.885132 
	C190.092407,142.873718 205.248199,143.003479 220.400055,142.812759 
	C224.866745,142.756531 226.810333,144.454880 226.983200,148.818741 
	C227.163544,153.371201 225.020798,155.021439 220.651062,154.927689 
	C205.673218,154.606369 190.692337,154.419891 175.712067,154.224426 
	C173.603653,154.196930 171.612000,154.056183 169.656891,155.710709 
	C165.022583,159.632523 160.820114,159.592224 157.228256,156.129364 
	C153.237488,152.281906 152.883316,147.809433 156.445862,142.427521 
z"/>
<path fill="#000000" opacity="1.000000" stroke="none" 
	d="
M402.708649,142.744476 
	C406.095306,142.996552 408.654053,141.923004 411.293182,140.813065 
	C416.119690,138.783157 420.499786,140.030548 422.709534,143.731430 
	C425.074005,147.691406 423.880859,152.716553 419.764587,156.134399 
	C416.126160,159.155487 413.000793,158.999191 408.722626,155.272430 
	C407.231140,153.973221 405.865692,153.504501 403.834625,153.589340 
	C388.743286,154.219788 373.646454,154.774155 358.545837,155.096008 
	C353.154907,155.210892 351.528534,153.338730 351.726562,148.815491 
	C351.873627,145.456451 353.287048,143.798492 356.886841,143.540131 
	C371.997589,142.455658 387.133148,143.334717 402.708649,142.744476 
z"/>
<path fill="#000000" opacity="1.000000" stroke="none" 
	d="
M382.889648,215.994873 
	C385.653625,209.134338 387.040619,208.526352 393.299286,211.547256 
	C389.875885,220.442612 386.731323,229.520706 382.846008,238.269821 
	C381.256958,241.848083 378.266785,240.263092 376.653839,237.674759 
	C374.470795,234.171463 372.711761,230.403900 370.555298,226.343948 
	C368.054443,229.505615 367.722382,233.249313 366.233307,236.460083 
	C365.387878,238.282944 364.843567,240.259644 362.235596,240.257401 
	C359.941956,240.255417 359.036316,238.678452 358.348541,236.953247 
	C355.515564,229.847427 352.637482,222.755112 350.049133,215.559586 
	C349.436890,213.857483 347.713501,211.105667 351.129822,210.205017 
	C353.701202,209.527130 356.602692,209.256012 357.942444,212.533524 
	C359.382568,216.056580 360.670868,219.641724 362.227448,223.730499 
	C364.889099,220.564362 365.609253,216.948730 367.345825,213.895737 
	C368.319305,212.184235 368.925079,209.943573 371.436310,210.103012 
	C373.771271,210.251251 374.664551,212.272629 375.483887,214.089188 
	C376.903961,217.237656 378.190948,220.446167 379.849792,224.378830 
	C380.997864,221.234024 381.886383,218.800110 382.889648,215.994873 
z"/>
<path fill="#000000" opacity="1.000000" stroke="none" 
	d="
M409.812378,240.268951 
	C400.599701,239.830200 394.073547,233.771927 393.084656,225.155167 
	C392.068481,216.300644 404.022491,207.673172 413.409180,210.486526 
	C420.385284,212.577408 426.272217,219.743271 425.851410,225.631821 
	C425.375732,232.287964 418.816071,238.430389 409.812378,240.268951 
M402.197083,221.758331 
	C399.905426,226.567017 402.732422,229.273514 406.344086,231.504303 
	C410.511780,234.078491 413.276001,231.278015 415.785950,228.566895 
	C417.853851,226.333298 417.885437,223.810013 415.788239,221.386871 
	C412.854828,217.997635 408.384308,217.220657 404.540375,219.554871 
	C403.841461,219.979294 403.279816,220.629791 402.197083,221.758331 
z"/>
<path fill="#000000" opacity="1.000000" stroke="none" 
	d="
M458.665771,232.895355 
	C458.667755,226.414581 458.753906,220.419678 458.632904,214.428986 
	C458.574860,211.555359 459.553009,210.064377 462.583466,210.020340 
	C467.258698,209.952393 471.888794,209.851395 476.292816,211.901627 
	C482.447998,214.767075 486.407867,220.555496 485.953705,226.291595 
	C485.510437,231.890030 480.541138,237.414276 474.273712,239.270676 
	C470.189392,240.480453 466.004547,240.126328 461.865967,239.875870 
	C457.281708,239.598434 459.071838,235.883957 458.665771,232.895355 
M476.006439,221.425354 
	C473.740509,218.892212 470.756256,217.378876 467.654755,218.692749 
	C464.882812,219.866974 466.518097,223.106064 466.118652,225.413803 
	C466.063324,225.733398 466.110352,226.071487 466.116760,226.400879 
	C466.222595,231.846329 468.744537,233.372177 473.609406,230.844498 
	C477.421753,228.863708 477.851898,225.725586 476.006439,221.425354 
z"/>
<path fill="#000000" opacity="1.000000" stroke="none" 
	d="
M437.220520,233.528275 
	C437.144073,238.493027 435.369202,240.825714 430.028625,238.943726 
	C428.257568,230.620895 428.689392,222.024643 429.255432,213.432388 
	C429.395508,211.305817 430.715271,210.186234 432.884613,210.104752 
	C437.044098,209.948502 441.223602,209.681137 445.261475,210.988174 
	C452.741364,213.409363 455.675781,221.244797 451.249939,227.720779 
	C449.493286,230.291107 449.649628,232.130905 451.403351,234.371475 
	C452.292419,235.507385 453.414795,236.652390 453.125519,238.580261 
	C448.889648,241.070480 445.961548,239.837555 443.487732,235.611526 
	C440.795258,231.011993 440.122253,230.946564 437.220520,233.528275 
M444.527374,223.262634 
	C446.393311,221.115250 445.365845,219.576172 443.356659,218.465271 
	C441.428040,217.398880 439.274506,216.656616 437.285095,218.193283 
	C435.936401,219.235062 436.085724,220.978729 436.610199,222.354095 
	C437.481628,224.639160 439.625977,224.685257 441.652679,224.516846 
	C442.440460,224.451385 443.194550,223.980743 444.527374,223.262634 
z"/>
<path fill="#000000" opacity="1.000000" stroke="none" 
	d="
M123.472397,238.933487 
	C109.402115,233.437363 110.923050,218.479385 120.163788,212.871460 
	C126.561378,208.988953 131.124985,208.996704 136.965332,214.027771 
	C142.067398,218.422836 143.860367,226.261673 141.014984,231.732849 
	C137.849731,237.819092 131.726746,240.830566 125.287201,239.461594 
	C124.799011,239.357819 124.320633,239.207901 123.472397,238.933487 
M124.310509,230.400940 
	C128.050751,233.001556 131.289093,232.127945 133.656387,228.579620 
	C135.730469,225.470795 134.837997,222.488388 131.872177,220.396942 
	C128.522461,218.034760 125.152634,218.791992 122.453926,221.491669 
	C119.286530,224.660217 121.112328,227.455551 124.310509,230.400940 
z"/>
<path fill="#000000" opacity="1.000000" stroke="none" 
	d="
M240.138626,447.053528 
	C245.607132,443.063385 247.344849,447.928894 250.055023,450.592896 
	C254.548752,455.009949 256.309601,461.156738 254.262054,465.902679 
	C251.798904,471.611877 246.544052,475.428833 241.347275,475.283539 
	C235.921051,475.131836 231.782425,471.697235 229.591415,465.434692 
	C227.542084,459.577087 230.041901,455.086731 234.183990,451.278870 
	C235.873444,449.725800 237.949265,448.593018 240.138626,447.053528 
M239.669724,464.867950 
	C241.899368,466.297028 243.817322,465.905151 245.197617,463.694153 
	C245.981949,462.437714 245.622421,461.085175 244.652496,460.012909 
	C243.379059,458.605194 241.821884,458.313843 240.158707,459.282654 
	C237.929688,460.581085 237.971405,462.374817 239.669724,464.867950 
z"/>
<path fill="#000000" opacity="1.000000" stroke="none" 
	d="
M218.626511,225.120239 
	C218.353226,221.521072 218.041199,218.382431 217.827408,215.237122 
	C217.679749,213.064804 218.168884,211.066437 220.773010,210.875961 
	C226.109772,210.485565 231.450562,210.515854 236.310089,213.223419 
	C241.610367,216.176544 244.668304,222.208176 243.630188,227.348450 
	C242.536316,232.764801 236.730591,238.039017 230.674179,239.118286 
	C220.067108,241.008499 218.378754,239.594467 218.645370,229.067917 
	C218.674820,227.905457 218.636551,226.741287 218.626511,225.120239 
M225.772842,223.322891 
	C225.899979,224.631195 226.107330,225.937546 226.139282,227.248169 
	C226.238037,231.296494 228.650070,231.422653 231.506485,230.279922 
	C233.858719,229.338913 234.965927,227.381042 234.863754,224.782883 
	C234.759323,222.127731 233.259491,220.389679 230.927246,219.667618 
	C228.427475,218.893707 224.968964,217.185455 225.772842,223.322891 
z"/>
<path fill="#000000" opacity="1.000000" stroke="none" 
	d="
M333.111023,448.915833 
	C335.744995,448.954071 337.510437,447.629211 339.419159,446.335724 
	C341.122742,448.573944 342.374359,450.673737 344.198334,452.404724 
	C349.057312,457.015900 350.035095,463.441467 347.117340,468.802765 
	C344.690674,473.261719 338.961151,476.546265 334.802246,475.862579 
	C329.349701,474.966278 323.154816,468.821228 322.328674,463.489258 
	C321.459900,457.882233 324.759979,452.494080 330.847321,449.624481 
	C331.445435,449.342560 332.105713,449.192505 333.111023,448.915833 
M332.762421,465.407318 
	C334.351471,467.165680 335.976654,466.673401 337.542114,465.415771 
	C338.692322,464.491730 338.975677,463.201447 338.530640,461.846619 
	C338.071228,460.448151 336.857239,459.671143 335.517456,459.633820 
	C331.615601,459.525238 332.090210,462.224335 332.762421,465.407318 
z"/>
<path fill="#000000" opacity="1.000000" stroke="none" 
	d="
M192.119049,117.712463 
	C197.518173,118.439293 200.834290,117.110878 203.139053,111.985138 
	C205.714996,106.256241 212.545654,104.941483 217.629974,108.204872 
	C223.919769,112.241989 225.443619,120.483795 221.017197,126.524902 
	C217.431671,131.418411 210.445786,132.874008 206.211288,128.383926 
	C201.961212,123.877312 197.767776,122.747864 192.192719,124.355217 
	C189.690567,125.076637 187.523331,124.798599 187.217941,121.422958 
	C186.902756,117.938782 189.141022,117.690247 192.119049,117.712463 
z"/>
<path fill="#000000" opacity="1.000000" stroke="none" 
	d="
M145.032532,220.836639 
	C144.922745,208.891693 143.619827,210.586975 154.672897,210.723953 
	C166.122711,210.865829 170.468033,218.584061 164.464172,228.225830 
	C162.774734,230.938934 164.840836,232.136642 165.741714,233.916183 
	C166.663010,235.736115 168.819992,237.863464 166.147659,239.469803 
	C163.795380,240.883743 161.053009,240.932327 159.386261,237.715103 
	C158.408554,235.827881 157.311768,233.910568 155.345032,232.799316 
	C153.251175,233.147507 153.387573,234.859314 153.168304,236.266983 
	C152.776642,238.781372 151.602570,240.175095 148.838013,239.929718 
	C145.764648,239.656906 145.771057,237.520111 145.692352,235.254715 
	C145.530670,230.601379 145.268860,225.951508 145.032532,220.836639 
M152.548294,220.158096 
	C151.858582,223.838821 154.306152,223.826843 156.779846,223.715271 
	C158.197845,223.651306 159.671707,223.189865 159.540329,221.534363 
	C159.329056,218.872330 156.905930,218.923737 155.031891,218.622818 
	C154.375916,218.517487 153.591995,219.209045 152.548294,220.158096 
z"/>
<path fill="#000000" opacity="1.000000" stroke="none" 
	d="
M384.462097,122.416550 
	C379.870758,121.605881 377.049500,122.823166 374.716248,126.801872 
	C372.143158,131.189651 366.927856,132.218613 362.411530,130.336075 
	C357.504028,128.290497 354.333221,123.042229 354.688263,117.552612 
	C354.984070,112.978508 358.968170,108.250031 363.437256,107.169006 
	C368.213165,106.013763 373.157349,108.087837 375.381927,112.993408 
	C377.112061,116.808586 379.386810,118.409187 383.445923,117.417343 
	C383.919373,117.301666 384.482849,117.233360 384.928101,117.378265 
	C387.034882,118.063980 390.860291,116.000549 390.965881,119.735023 
	C391.084961,123.945137 387.261169,122.226494 384.462097,122.416550 
z"/>
<path fill="#000000" opacity="1.000000" stroke="none" 
	d="
M208.293640,222.378860 
	C210.602356,222.694702 213.472015,221.069260 214.040878,224.289581 
	C214.639923,227.680725 211.743851,228.098007 209.323288,228.886627 
	C207.859543,229.363541 205.848953,228.800613 204.863922,231.110397 
	C206.806442,233.613113 209.657867,232.541977 212.091751,232.588638 
	C214.402451,232.632904 216.051834,232.948975 216.009537,235.747360 
	C215.970947,238.300827 214.965240,239.891296 212.214386,239.957733 
	C211.715240,239.969788 211.216354,239.993546 210.717499,240.015228 
	C196.026443,240.653732 195.993790,240.654022 195.886200,226.102539 
	C195.857941,222.280853 196.013489,218.451828 196.247421,214.636154 
	C196.418991,211.837479 198.029953,210.234863 200.887619,210.809814 
	C204.838898,211.604752 208.800018,211.735916 212.795441,211.692551 
	C214.398117,211.675140 215.837830,212.034973 216.103012,213.958313 
	C216.372833,215.915283 215.501129,217.236160 213.572449,217.610947 
	C211.787018,217.957901 209.954971,218.061371 208.145981,218.291931 
	C206.745895,218.470398 204.734894,217.944077 204.620972,220.079102 
	C204.510361,222.152130 206.564545,221.930496 208.293640,222.378860 
z"/>
<path fill="#000000" opacity="1.000000" stroke="none" 
	d="
M173.111176,210.409576 
	C179.532410,210.201767 177.504669,215.185242 178.559357,218.610550 
	C184.169586,216.951279 186.445740,207.719055 194.859589,211.742950 
	C192.243530,216.933945 186.877426,219.634537 183.782883,224.424377 
	C185.929199,227.915329 189.330780,230.147324 191.845215,233.164017 
	C193.273773,234.877914 195.784592,236.869461 193.207672,238.978699 
	C191.112701,240.693451 188.132202,240.678192 186.012024,238.269852 
	C183.976181,235.957275 182.292160,233.285095 179.336945,232.066162 
	C177.714005,233.442917 178.344406,235.049347 178.229019,236.461990 
	C178.092987,238.127090 177.606079,239.434402 175.720657,239.568069 
	C173.900742,239.697067 172.078430,239.130310 171.975464,237.144562 
	C171.539200,228.730942 169.773621,220.332596 171.446350,211.885193 
	C171.551636,211.353500 172.279892,210.945175 173.111176,210.409576 
z"/>
<path fill="#000000" opacity="1.000000" stroke="none" 
	d="
M238.355423,268.534912 
	C236.730560,273.854401 237.993271,276.876038 242.412384,278.982941 
	C242.859818,279.196289 243.404846,279.237762 243.808716,279.504303 
	C246.466797,281.258392 250.317444,282.539093 248.488403,286.845612 
	C246.583603,291.330475 241.623734,292.862488 237.663361,290.650635 
	C231.247528,287.067413 225.920425,276.635773 226.866714,269.508453 
	C227.880814,261.870239 234.680405,255.425385 241.078156,256.091644 
	C241.678864,256.154205 242.241760,256.579987 243.181656,256.996399 
	C241.064041,260.648071 242.083786,265.287384 238.355423,268.534912 
z"/>
<path fill="#000000" opacity="1.000000" stroke="none" 
	d="
M108.630646,211.028229 
	C111.878075,211.769165 111.368340,213.977997 111.222252,215.915833 
	C111.050758,218.190643 109.235519,218.197556 107.546471,218.374863 
	C105.562950,218.583115 103.590157,218.892471 101.611458,219.148300 
	C100.305122,219.317215 98.664177,219.231445 98.640465,221.057175 
	C98.615562,222.974548 100.210716,223.442154 101.767662,223.563538 
	C103.590622,223.705673 105.427185,223.664795 107.256622,223.734940 
	C108.987228,223.801285 110.107040,224.579025 110.149826,226.444321 
	C110.192459,228.302811 109.547737,229.753479 107.531410,230.086700 
	C106.390518,230.275238 105.199219,230.374969 104.052353,230.272232 
	C99.992188,229.908463 98.108681,231.733063 98.334343,235.759018 
	C98.499924,238.712936 97.181618,239.945938 94.198303,239.951111 
	C91.127258,239.956421 90.684914,238.206406 90.681831,235.757751 
	C90.673019,228.765991 90.715675,221.770035 90.479416,214.784485 
	C90.369240,211.527084 91.849762,210.807861 94.687157,210.900177 
	C99.177597,211.046295 103.675430,210.965240 108.630646,211.028229 
z"/>
<path fill="#000000" opacity="1.000000" stroke="none" 
	d="
M318.842804,273.664062 
	C318.882233,271.587189 318.771179,269.890381 319.103851,268.285583 
	C319.466492,266.536163 320.482666,265.037109 322.628693,265.921936 
	C325.431122,267.077393 327.819611,266.800415 329.821594,264.437317 
	C332.019318,261.843140 328.827545,260.337128 328.405060,258.037811 
	C331.806854,254.470016 335.928070,255.270859 339.916229,256.355408 
	C344.318726,257.552673 347.612946,260.277832 349.178497,264.702606 
	C349.839111,266.569763 348.904266,267.761780 346.996063,267.579773 
	C343.934448,267.287689 340.855377,268.670410 337.746674,266.772034 
	C335.428802,265.356598 332.467865,265.424683 330.301758,267.528076 
	C328.053253,269.711487 327.634460,272.421448 329.076385,275.315918 
	C329.372375,275.910034 329.613983,276.536255 329.826782,277.165924 
	C330.794250,280.028687 332.265137,283.427551 328.660187,285.078094 
	C325.207428,286.658936 323.352753,283.422028 321.609680,281.005951 
	C320.123627,278.946045 319.444489,276.530304 318.842804,273.664062 
z"/>
<path fill="#000000" opacity="1.000000" stroke="none" 
	d="
M145.870667,183.051025 
	C143.403336,183.092606 141.406403,183.139664 139.409332,183.146500 
	C136.697342,183.155777 134.936188,182.039383 134.755310,179.112732 
	C134.565353,176.039215 136.402908,174.966171 139.074524,174.871033 
	C149.052277,174.515717 159.030716,174.170380 169.011154,173.907806 
	C170.977341,173.856079 173.515152,173.802231 173.835281,176.333908 
	C174.145905,178.790558 172.614319,180.816650 170.188492,181.687500 
	C168.972290,182.124100 167.574646,182.234024 166.265747,182.203644 
	C159.603333,182.049026 152.958405,182.178268 145.870667,183.051025 
z"/>
<path fill="#000000" opacity="1.000000" stroke="none" 
	d="
M428.715393,183.684998 
	C426.201660,184.092133 424.219757,184.127090 423.694977,181.420990 
	C423.158844,178.656326 422.524658,175.829697 424.132294,173.236618 
	C424.425903,172.763031 425.719604,172.494385 426.351562,172.712067 
	C430.933777,174.290390 435.732880,174.541351 440.456177,175.272888 
	C441.692505,175.464355 443.263794,175.729233 443.420471,177.422180 
	C443.575378,179.096069 442.518555,180.204498 441.149628,180.973526 
	C437.415649,183.071121 433.230682,183.147186 428.715393,183.684998 
z"/>
<path fill="#000000" opacity="1.000000" stroke="none" 
	d="
M180.591125,181.922791 
	C180.297379,179.724045 179.949234,177.933990 179.883377,176.133621 
	C179.806625,174.036194 179.426010,171.427414 182.456619,171.132645 
	C185.035049,170.881851 187.335938,171.873154 188.530334,174.468979 
	C190.138702,177.964478 187.445770,183.535217 183.755478,184.478668 
	C181.833145,184.970139 180.988541,184.056152 180.591125,181.922791 
z"/>
<path fill="#000000" opacity="1.000000" stroke="none" 
	d="
M383.071777,182.958679 
	C381.237885,181.452316 381.185394,179.595840 380.924225,177.818573 
	C380.499420,174.928162 381.248779,172.908234 384.633636,172.848328 
	C387.438507,172.798691 390.227295,173.025574 390.243561,176.707413 
	C390.255890,179.489258 390.975159,183.039001 386.394562,183.230515 
	C385.413025,183.271530 384.425079,183.158127 383.071777,182.958679 
z"/>
<path fill="#000000" opacity="1.000000" stroke="none" 
	d="
M398.458496,174.608505 
	C399.671509,171.496017 401.956390,171.680176 404.018158,172.395782 
	C406.092499,173.115753 406.122284,175.263367 405.975189,177.084778 
	C405.843018,178.721100 405.463654,180.379562 404.912079,181.928070 
	C404.359955,183.478195 403.057709,184.236359 401.349640,184.028076 
	C399.815369,183.840988 399.033081,182.813202 398.712158,181.415298 
	C398.227325,179.303131 397.805145,177.175629 398.458496,174.608505 
z"/>
<path fill="#000000" opacity="1.000000" stroke="none" 
	d="
M418.031372,174.404312 
	C418.135925,176.629257 418.488342,178.524719 418.041351,180.207855 
	C417.312256,182.952957 414.954407,184.475433 412.412659,183.367416 
	C409.953247,182.295319 410.748077,179.342087 410.786896,177.115692 
	C410.819946,175.218552 410.496277,172.878357 412.917511,172.097763 
	C414.910065,171.455399 416.861877,171.738831 418.031372,174.404312 
z"/>
<path fill="#000000" opacity="1.000000" stroke="none" 
	d="
M193.180847,181.086426 
	C192.377579,174.279373 193.831970,172.215347 197.953903,173.656570 
	C200.005280,174.373825 200.771286,175.951309 200.833511,177.847275 
	C200.926132,180.670074 198.396027,181.598068 196.612808,182.935364 
	C194.890457,184.226990 193.915009,183.082932 193.180847,181.086426 
z"/>
</svg>